<svg xmlns="http://www.w3.org/2000/svg" width="32" height="32" viewBox="0 0 32 32" fill="none">
  <defs>
    <linearGradient id="shieldGrad" x1="16" y1="2" x2="16" y2="30" gradientUnits="userSpaceOnUse">
      <stop offset="0%" stop-color="#60a5fa"/>
      <stop offset="100%" stop-color="#3b82f6"/>
    </linearGradient>
  </defs>
  <!-- Shield shape -->
  <path d="M16 2L4 7v8c0 7.732 5.12 14.958 12 17 6.88-2.042 12-9.268 12-17V7L16 2z" fill="url(#shieldGrad)" opacity="0.15" stroke="#3b82f6" stroke-width="1.5"/>
  <!-- Inner wolf grid pattern -->
  <path d="M16 6L8 9.5v5.5c0 5.368 3.413 10.376 8 11.833 4.587-1.457 8-6.465 8-11.833V9.5L16 6z" fill="url(#shieldGrad)" opacity="0.3"/>
  <!-- Grid lines representing the "grid" in Gridwolf -->
  <line x1="11" y1="13" x2="21" y2="13" stroke="#3b82f6" stroke-width="1" opacity="0.6"/>
  <line x1="11" y1="17" x2="21" y2="17" stroke="#3b82f6" stroke-width="1" opacity="0.6"/>
  <line x1="11" y1="21" x2="19" y2="21" stroke="#3b82f6" stroke-width="1" opacity="0.4"/>
  <line x1="14" y1="10" x2="14" y2="24" stroke="#3b82f6" stroke-width="1" opacity="0.5"/>
  <line x1="18" y1="10" x2="18" y2="23" stroke="#3b82f6" stroke-width="1" opacity="0.5"/>
  <!-- Central accent dot -->
  <circle cx="16" cy="15" r="2" fill="#3b82f6"/>
</svg>
