<svg xmlns="http://www.w3.org/2000/svg" width="32" height="32" viewBox="0 0 120 120" fill="none">
  <!-- Top bar (magenta) -->
  <polygon points="25,30 60,10 95,30 60,50" fill="#e879f9"/>
  <polygon points="25,30 60,50 60,58 25,38" fill="#c026d3"/>
  <polygon points="60,50 95,30 95,38 60,58" fill="#d946ef"/>
  <!-- Left column (blue) -->
  <polygon points="25,38 45,50 45,90 25,78" fill="#2563eb"/>
  <!-- Bottom-left cube (dark blue) -->
  <polygon points="25,78 25,98 45,110 45,90" fill="#1e40af"/>
  <!-- Center block top (light cyan) -->
  <polygon points="45,50 95,38 95,58 60,78 45,68 45,50" fill="#67e8f9"/>
  <!-- Center front (cyan) -->
  <polygon points="45,68 45,90 45,110 60,110 60,78 45,68" fill="#22d3ee"/>
  <!-- Right face (blue) -->
  <polygon points="60,78 95,58 95,90 60,110" fill="#3b82f6"/>
  <!-- Step highlight -->
  <polygon points="25,78 45,68 60,78 45,90" fill="#60a5fa" opacity="0.5"/>
</svg>
